<svg width="20px" height="20px" viewBox="0 0 20 20" version="1.1" xmlns="http://www.w3.org/2000/svg" xmlns:xlink="http://www.w3.org/1999/xlink">
    <title>80F4E141-0196-444C-8386-AF53CC314BF3</title>
    <g id="-----↳-Demos" stroke="none" stroke-width="1" fill="none" fill-rule="evenodd">
        <g id="Icon-Review---Approved-icons" transform="translate(-398.000000, -1640.000000)" fill="white">
            <g id="Download" transform="translate(88.000000, 1640.000000)">
                <g id="Icons/Social/Instagram/Outline" transform="translate(310.000000, 0.000000)">
                    <path d="M8.82509102,0 L11.1738932,0 C12.8491598,0.00379145784 13.2338099,0.0185456137 14.1226982,0.0591030018 C15.187141,0.107652776 15.9141174,0.276723492 16.5502266,0.523958154 C17.2078518,0.779489547 17.7655588,1.12144192 18.3215589,1.67740233 C18.8775194,2.23340244 19.2194717,2.79110953 19.4750428,3.44873467 C19.7222377,4.08484389 19.8913085,4.81182019 19.9398582,5.87626307 C19.9869049,6.90737346 19.9992305,7.25998097 20,9.73570289 L20,10.2632942 C19.9992305,12.7389803 19.9869049,13.0915878 19.9398582,14.1226982 C19.8913085,15.187141 19.7222377,15.9141174 19.4750428,16.5502266 C19.2194717,17.2078518 18.8775194,17.7655588 18.3215589,18.3215589 C17.7655588,18.8775194 17.2078518,19.2194717 16.5502266,19.4750428 C15.9141174,19.7222377 15.187141,19.8913085 14.1226982,19.9398582 C13.0915878,19.9869049 12.7389803,19.9992305 10.2632942,20 L9.73570289,20 C7.25998097,19.9992305 6.90737346,19.9869049 5.87626307,19.9398582 C4.81182019,19.8913085 4.08484389,19.7222377 3.44873467,19.4750428 C2.79110953,19.2194717 2.23340244,18.8775194 1.67740233,18.3215589 C1.12144192,17.7655588 0.779489547,17.2078518 0.523958154,16.5502266 C0.276723492,15.9141174 0.107652776,15.187141 0.0591030018,14.1226982 C0.0185456137,13.2338099 0.00379145784,12.8491598 0,11.1738932 L0,8.82509102 C0.00379145784,7.14980144 0.0185456137,6.76515134 0.0591030018,5.87626307 C0.107652776,4.81182019 0.276723492,4.08484389 0.523958154,3.44873467 C0.779489547,2.79110953 1.12144192,2.23340244 1.67740233,1.67740233 C2.23340244,1.12144192 2.79110953,0.779489547 3.44873467,0.523958154 C4.08484389,0.276723492 4.81182019,0.107652776 5.87626307,0.0591030018 C6.76515134,0.0185456137 7.14980144,0.00379145784 8.82509102,0 L11.1738932,0 L8.82509102,0 Z M10.733046,1.80115495 L9.26594423,1.80115495 C7.25857953,1.80324073 6.90746344,1.81583469 5.95839674,1.85913648 C4.98335214,1.90359743 4.45383012,2.06651507 4.10143736,2.20347069 C3.63463704,2.38488726 3.30149746,2.60159471 2.95156594,2.95156594 C2.60159471,3.30149746 2.38488726,3.63463704 2.20347069,4.10143736 C2.06651507,4.45383012 1.90359743,4.98335214 1.85913648,5.95839674 C1.81583469,6.90746344 1.80324073,7.25857953 1.80115495,9.26594423 L1.80115495,10.733046 C1.80324073,12.7403818 1.81583469,13.0914978 1.85913648,14.0405646 C1.90359743,15.0156091 2.06651507,15.5451311 2.20347069,15.8975239 C2.38488726,16.3643242 2.60163441,16.6974638 2.95156594,17.0473953 C3.30149746,17.3973665 3.63463704,17.614074 4.10143736,17.7954906 C4.45383012,17.9324462 4.98335214,18.0953638 5.95839674,18.1398247 C7.0127962,18.1879378 7.32902474,18.1981401 9.99950046,18.1981401 C12.6699365,18.1981401 12.9862047,18.1879378 14.0405646,18.1398247 C15.0156091,18.0953638 15.5451311,17.9324462 15.8975239,17.7954906 C16.3643242,17.614074 16.6974638,17.3973665 17.0473953,17.0473953 C17.3973665,16.6974638 17.614074,16.3643242 17.7954906,15.8975239 C17.9324462,15.5451311 18.0953638,15.0156091 18.1398247,14.0405646 C18.1879378,12.986046 18.1981401,12.6697381 18.1981401,9.99950046 C18.1981401,7.32922322 18.1879378,7.0129153 18.1398247,5.95839674 C18.0953638,4.98335214 17.9324462,4.45383012 17.7954906,4.10143736 C17.614074,3.63463704 17.3973665,3.30149746 17.0473953,2.95156594 C16.6974638,2.60159471 16.3643242,2.38488726 15.8975239,2.20347069 C15.5451311,2.06651507 15.0156091,1.90359743 14.0405646,1.85913648 C13.0914978,1.81583469 12.7403818,1.80324073 10.733046,1.80115495 Z M9.99949996,4.99920128 C12.7610764,4.99920128 14.99976,7.23788484 14.99976,9.99949996 C14.99976,12.7610764 12.7610764,14.99976 9.99949996,14.99976 C7.23788484,14.99976 4.99920128,12.7610764 4.99920128,9.99949996 C4.99920128,7.23788484 7.23788484,4.99920128 9.99949996,4.99920128 Z M9.99949996,6.75368323 C8.20686786,6.75368323 6.75368323,8.20686786 6.75368323,9.99949996 C6.75368323,11.7920934 8.20686786,13.245278 9.99949996,13.245278 C11.7920934,13.245278 13.245278,11.7920934 13.245278,9.99949996 C13.245278,8.20686786 11.7920934,6.75368323 9.99949996,6.75368323 Z M15.4164293,3.33244149 C16.1068302,3.33244149 16.6665198,3.89213105 16.6665198,4.58253201 C16.6665198,5.27293296 16.1068302,5.83258117 15.4164293,5.83258117 C14.7260697,5.83258117 14.1663801,5.27293296 14.1663801,4.58253201 C14.1663801,3.89213105 14.7260697,3.33244149 15.4164293,3.33244149 Z" id="instagram"></path>
                </g>
            </g>
        </g>
    </g>
</svg>