<svg width="25px" height="18px" viewBox="0 0 25 18" version="1.1" xmlns="http://www.w3.org/2000/svg" xmlns:xlink="http://www.w3.org/1999/xlink">
    <title>A909BD3C-7EEF-4FAB-964B-0F5E8A0DCDCA</title>
    <g id="-----↳-Demos" stroke="none" stroke-width="1" fill="none" fill-rule="evenodd">
        <g id="Icon-Review---Approved-icons" transform="translate(-396.000000, -4763.000000)" fill="white">
            <g id="Download" transform="translate(100.000000, 4763.000000)">
                <g id="Icons/Social/Youtube" transform="translate(296.000000, 0.000000)">
                    <path d="M24.4468818,2.57190739 L24.4781314,2.77943646 C24.1760518,1.68990882 23.3604368,0.849204299 22.3239911,0.543204795 L22.3021164,0.537910686 C20.353182,1.45734094e-05 12.5105698,1.45734094e-05 12.5105698,1.45734094e-05 C12.5105698,1.45734094e-05 4.68774899,-0.0105590122 2.71902313,0.537910686 C1.66278607,0.849204299 0.846129418,1.68990882 0.549258058,2.7572012 L0.544049788,2.77943646 C-0.184066287,6.64519489 -0.189274556,11.2902462 0.576341059,15.4291806 L0.544049788,15.2195339 C0.846129418,16.3090616 1.66174442,17.1497661 2.69819005,17.4557656 L2.72006478,17.4610597 C4.66691592,18 12.5116114,18 12.5116114,18 C12.5116114,18 20.3333905,18 22.3031581,17.4610597 C23.3604368,17.1497661 24.1770934,16.3090616 24.4739648,15.2417692 L24.4791731,15.2195339 C24.810419,13.4216545 25,11.3527167 25,9.23930833 C25,9.16201434 25,9.08366153 24.9989583,9.00530871 C25,8.93330883 25,8.84754426 25,8.7617797 C25,6.64731254 24.810419,4.57837472 24.4468818,2.57190739 L24.4468818,2.57190739 Z M10.0085171,12.865773 L10.0085171,5.14378557 L16.5355204,9.01060282 L10.0085171,12.865773 Z" id="youtube"></path>
                </g>
            </g>
        </g>
    </g>
</svg>