<svg width="20px" height="21px" viewBox="0 0 20 21" version="1.1" xmlns="http://www.w3.org/2000/svg" xmlns:xlink="http://www.w3.org/1999/xlink">
    <title>522AEEF2-BFC9-45E4-A734-3243BD888EAD</title>
    <g id="-----↳-Demos" stroke="none" stroke-width="1" fill="none" fill-rule="evenodd">
        <g id="Icon-Review---Approved-icons" transform="translate(-397.000000, -1800.000000)" fill="white">
            <g id="Download" transform="translate(102.000000, 1792.000000)">
                <g id="Icons/Social/Linkedin/Solid-Alternative" transform="translate(295.000000, 8.000000)">
                    <path d="M15.1114286,6.82413714 C13.1647937,6.82413714 11.8328571,7.68036977 11.239816,8.67519351 L11.1428571,8.85204323 L11.1428571,6.99474057 L7.42857143,6.99474057 L7.42857143,20.0743368 L11.4285714,20.0743368 L11.4285714,13.7386941 C11.4285714,11.6152501 12.2142857,10.2646396 14.1028571,10.2646396 C15.4053665,10.2646396 15.951879,11.4108668 15.9969396,13.4544805 L16,13.7386941 L16,20.0743368 L20,20.0743368 L20,12.8504189 C20,8.94985586 19.0622857,6.82413714 15.1114286,6.82413714 Z M4.57142857,6.82413714 L0.571428571,6.82413714 L0.571428571,19.9037333 L4.57142857,19.9037333 L4.57142857,6.82413714 Z M2.57142857,0 C1.15142857,0 0,1.14588636 0,2.55905143 C0,3.97221649 1.15142857,5.11810286 2.57142857,5.11810286 C3.99142857,5.11810286 5.14285714,3.97221649 5.14285714,2.55905143 C5.14285714,1.14588636 3.99142857,0 2.57142857,0 Z" id="Linkedin"></path>
                </g>
            </g>
        </g>
    </g>
</svg>