<svg xmlns="http://www.w3.org/2000/svg" width="113.328" height="16.29" viewBox="0 0 113.328 16.29">
    <path id="prefix__logo-live-magazin_white" d="M.774 0h9.27v-3.222H4.536v-9.648H.774zm13.914-11.322a1.715 1.715 0 0 0-1.854-1.71A1.709 1.709 0 0 0 11-11.322a1.709 1.709 0 0 0 1.836 1.71 1.715 1.715 0 0 0 1.852-1.71zM11.142 0h3.4v-9.18h-3.4zm7.128 0h3.978L25.4-9.18h-3.42l-1.046 3.528c-.27.936-.612 2.214-.612 2.214h-.036s-.324-1.278-.594-2.214L18.648-9.18H15.12zm11.988.252a5.179 5.179 0 0 0 2.934-.774 3.866 3.866 0 0 0 1.746-2.214h-3.294a1.357 1.357 0 0 1-1.278.684c-1.026 0-1.6-.648-1.8-1.71h6.552a5.825 5.825 0 0 0-1.6-4.482 4.81 4.81 0 0 0-3.384-1.242 4.723 4.723 0 0 0-4.9 4.878 4.732 4.732 0 0 0 5.024 4.86zm-1.692-5.814c.18-1.008.7-1.638 1.638-1.638.81 0 1.386.612 1.53 1.638zm9.126 2.016a1.768 1.768 0 0 0-1.854 1.818A1.782 1.782 0 0 0 37.692.108a1.8 1.8 0 0 0 1.872-1.836 1.783 1.783 0 0 0-1.872-1.818zM43.974 0h1.116v-11.214h.036s.36 1.08.63 1.746L49.518 0h1.062l3.726-9.468c.27-.72.612-1.746.612-1.746h.036V0h1.17v-12.87h-1.692L50.094-1.638h-.036L45.612-12.87h-1.638zM61.02-.684c-1.1 0-2.07-.4-2.07-1.692 0-1.6 1.206-1.836 2.772-2.052a7.733 7.733 0 0 0 2.412-.612v1.674A2.854 2.854 0 0 1 61.02-.684zm-.2.9a3.747 3.747 0 0 0 3.258-1.6h.054v.2A1.242 1.242 0 0 0 65.5.126a1.8 1.8 0 0 0 .756-.144v-.81H66.2a2 2 0 0 1-.414.072c-.4-.018-.612-.252-.612-.81v-5.058c0-2.034-1.26-2.88-3.294-2.88-2.394 0-3.582 1.17-3.708 2.97h1.1c.09-1.386.954-2.07 2.61-2.07 1.44 0 2.232.612 2.232 1.872v.18c0 .936-.666 1.044-2.5 1.26-2.106.252-3.834.7-3.834 2.916 0 1.728 1.314 2.592 3.042 2.592zm10.028-1.332c-1.962 0-2.9-1.566-2.9-3.69 0-2.268 1.08-3.762 2.916-3.762 2.034 0 3.006 1.53 3.006 3.726.002 2.232-.952 3.726-3.022 3.726zm.072 4.374a4.086 4.086 0 0 0 3.114-1.116A3.606 3.606 0 0 0 74.9-.36v-8.946h-1.1v1.44h-.054A3.2 3.2 0 0 0 70.794-9.5c-2.16 0-4 1.656-4 4.68 0 2.736 1.548 4.644 4 4.644A3.23 3.23 0 0 0 73.746-1.8h.054v1.476c0 1.638-.936 2.664-2.916 2.664-1.35 0-2.412-.432-2.61-1.512h-1.08c.162 1.386 1.44 2.43 3.726 2.43zm8.658-3.942c-1.1 0-2.07-.4-2.07-1.692 0-1.6 1.206-1.836 2.772-2.052a7.733 7.733 0 0 0 2.412-.612v1.674a2.854 2.854 0 0 1-3.114 2.682zm-.2.9a3.747 3.747 0 0 0 3.258-1.6h.054v.2a1.242 1.242 0 0 0 1.37 1.31 1.8 1.8 0 0 0 .756-.144v-.81h-.054a2 2 0 0 1-.414.072c-.4-.018-.612-.252-.612-.81v-5.058c0-2.034-1.26-2.88-3.294-2.88-2.394 0-3.582 1.17-3.708 2.97h1.1c.09-1.386.954-2.07 2.61-2.07 1.44 0 2.232.612 2.232 1.872v.18c0 .936-.666 1.044-2.5 1.26-2.106.252-3.834.7-3.834 2.916C76.338-.648 77.652.216 79.38.216zM85.5 0h7.092v-.99h-5.706v-.054l5.544-7.47v-.792h-6.57v.972h5.076v.054L85.5-.954zm8.442-11.988a.722.722 0 0 0 .72.72.722.722 0 0 0 .72-.72.722.722 0 0 0-.72-.72.722.722 0 0 0-.72.72zM94.1 0h1.12v-9.306H94.1zm3.114 0h1.116v-5.9a2.73 2.73 0 0 1 2.88-2.646 1.873 1.873 0 0 1 2.128 2.046V0h1.116v-6.606a2.731 2.731 0 0 0-2.97-2.9 3.58 3.58 0 0 0-3.114 1.62h-.036v-1.42h-1.116zM110.2.234a3.634 3.634 0 0 0 3.8-3.042h-1.08A2.593 2.593 0 0 1 110.2-.72c-2.124 0-3.132-1.638-3.186-3.726h7.086a5.1 5.1 0 0 0-1.584-4.266 3.68 3.68 0 0 0-2.412-.81c-2.574 0-4.248 2.088-4.248 4.878S107.406.234 110.2.234zm-3.168-5.562c.2-1.854 1.188-3.276 3.078-3.276 1.908 0 2.772 1.44 2.826 3.276z" transform="translate(-.774 13.032)" style="fill:#fff"/>
</svg>
