<?xml version="1.0" encoding="utf-8"?>
<!-- Generator: Adobe Illustrator 24.1.2, SVG Export Plug-In . SVG Version: 6.00 Build 0)  -->
<svg version="1.1" id="Ebene_1" xmlns="http://www.w3.org/2000/svg" xmlns:xlink="http://www.w3.org/1999/xlink" x="0px" y="0px"
	 viewBox="0 0 11.039 11.039" style="enable-background:new 0 0 11.039 11.039;" xml:space="preserve">
<style type="text/css">
	.st0{clip-path:url(#SVGID_2_);enable-background:new    ;}
	.st1{clip-path:url(#SVGID_4_);}
	.st2{clip-path:url(#SVGID_2_);fill:#FFFFFF;}
</style>
<g>
	<defs>
		<rect id="SVGID_1_" width="11.039" height="11.039"/>
	</defs>
	<clipPath id="SVGID_2_">
		<use xlink:href="#SVGID_1_"  style="overflow:visible;"/>
	</clipPath>
	<g class="st0">
		<g>
			<defs>
				<rect id="SVGID_3_" x="-9" y="-7" width="35.208" height="22.043"/>
			</defs>
			<clipPath id="SVGID_4_">
				<use xlink:href="#SVGID_3_"  style="overflow:visible;"/>
			</clipPath>
			<path class="st1" d="M5.519,11.039c3.048,0,5.519-2.471,5.519-5.52C11.038,2.471,8.567,0,5.519,0S0,2.471,0,5.519
				C0,8.568,2.471,11.039,5.519,11.039"/>
			<g class="st1">
			</g>
		</g>
	</g>
	<path class="st2" d="M8.207,6.655c-0.427,0-0.734,0.302-0.734,0.726c0,0.425,0.307,0.734,0.734,0.734
		c0.427,0,0.741-0.309,0.741-0.734C8.948,6.957,8.634,6.655,8.207,6.655 M3.225,8.072h3.67V6.784H4.714V2.925H3.225V8.072z"/>
</g>
<g>
</g>
<g>
</g>
<g>
</g>
<g>
</g>
<g>
</g>
<g>
</g>
<g>
</g>
<g>
</g>
<g>
</g>
<g>
</g>
<g>
</g>
</svg>
